<?xml version="1.0" encoding="utf-8"?>
<!-- Generator: Adobe Illustrator 16.0.0, SVG Export Plug-In . SVG Version: 6.00 Build 0)  -->
<!DOCTYPE svg PUBLIC "-//W3C//DTD SVG 1.1//EN" "http://www.w3.org/Graphics/SVG/1.1/DTD/svg11.dtd">
<svg version="1.1" id="Layer_1" xmlns="http://www.w3.org/2000/svg" xmlns:xlink="http://www.w3.org/1999/xlink" x="0px" y="0px"
	 width="224.667px" height="86.333px" viewBox="64.802 0 224.667 86.333" enable-background="new 64.802 0 224.667 86.333"
	 xml:space="preserve">
<g id="icon">
	<path fill="#F68A1F" d="M74.707,55.092h-2.041l1.231-1.688c0.935-1.292,1.517-2.868,1.87-4.913
		c-5.729-2.455-8.882-7.373-8.882-13.862c0.001-9.765,7.367-15.848,19.185-15.848c11.817,0,19.233,6.083,19.233,15.847
		c0,9.887-7.193,15.789-19.233,15.789c-0.236,0-0.589,0-0.761,0C83.479,52.702,80.262,55.092,74.707,55.092z M86.052,21.002
		c-10.64,0-17.141,5.091-17.141,13.746c0,7.374,4.5,10.704,8.243,12.161l0.821,0.293l-0.113,0.819
		c-0.235,1.985-0.706,3.511-1.233,4.909c3.865-0.465,6.144-2.398,7.44-4.092l0.284-0.465h0.704c0.291,0,0.643,0,1.107,0
		c15.502,0,17.197-9.536,17.197-13.746C103.244,26.093,96.751,21.002,86.052,21.002z"/>
</g>
<g>
	<path d="M145.173,27.379c0,0.872-0.11,1.745-0.327,2.616c-0.219,0.873-0.578,1.669-1.082,2.391
		c-0.503,0.722-1.156,1.36-1.962,1.912c-0.803,0.553-1.777,0.963-2.918,1.23v0.301c1.007,0.168,1.962,0.454,2.868,0.855
		c0.906,0.403,1.694,0.955,2.365,1.66c0.671,0.706,1.199,1.563,1.585,2.565c0.387,1.005,0.58,2.198,0.58,3.573
		c0,1.812-0.386,3.378-1.157,4.701c-0.772,1.323-1.803,2.409-3.093,3.245c-1.293,0.839-2.76,1.46-4.404,1.863
		c-1.644,0.402-3.337,0.604-5.081,0.604c-0.571,0-1.3,0-2.188,0c-0.888,0-1.845-0.024-2.87-0.076
		c-1.023-0.054-2.062-0.125-3.117-0.228c-1.055-0.098-2.021-0.25-2.891-0.453V19.43c0.636-0.101,1.366-0.2,2.187-0.301
		s1.702-0.184,2.642-0.253c0.94-0.066,1.905-0.116,2.894-0.151c0.989-0.033,1.972-0.049,2.943-0.049
		c1.644,0,3.246,0.125,4.805,0.376c1.56,0.252,2.95,0.698,4.177,1.333c1.223,0.639,2.203,1.526,2.942,2.667
		C144.802,24.195,145.173,25.636,145.173,27.379z M130.332,33.967c0.47,0,1.014-0.015,1.634-0.047
		c0.622-0.035,1.133-0.084,1.535-0.152c1.274-0.396,2.372-0.995,3.295-1.789c0.925-0.797,1.386-1.842,1.386-3.14
		c0-0.86-0.167-1.573-0.503-2.138c-0.335-0.565-0.779-1.013-1.333-1.344c-0.554-0.332-1.183-0.564-1.888-0.698
		c-0.705-0.133-1.442-0.2-2.212-0.2c-0.872,0-1.677,0.018-2.415,0.05c-0.739,0.034-1.309,0.083-1.71,0.149v9.308L130.332,33.967
		L130.332,33.967z M132.595,49.114c0.839,0,1.651-0.1,2.441-0.296c0.788-0.2,1.484-0.51,2.088-0.926
		c0.603-0.414,1.089-0.938,1.459-1.567c0.369-0.632,0.554-1.377,0.554-2.24c0-1.097-0.22-1.959-0.655-2.588s-1.005-1.12-1.711-1.47
		c-0.705-0.347-1.491-0.571-2.364-0.674c-0.874-0.098-1.746-0.149-2.616-0.149h-3.672v9.612c0.166,0.064,0.435,0.113,0.804,0.146
		c0.369,0.037,0.761,0.061,1.18,0.074c0.422,0.019,0.856,0.033,1.31,0.051C131.866,49.104,132.259,49.114,132.595,49.114z"/>
	<path d="M148.592,41.815c0-4.257,1.038-7.537,3.118-9.833c2.081-2.297,4.998-3.445,8.755-3.445c2.011,0,3.754,0.32,5.231,0.954
		c1.477,0.639,2.7,1.536,3.672,2.692c0.973,1.158,1.702,2.559,2.188,4.201c0.484,1.645,0.73,3.456,0.73,5.433
		c0,4.26-1.033,7.541-3.095,9.837c-2.061,2.3-4.973,3.447-8.727,3.447c-2.014,0-3.757-0.319-5.234-0.958
		c-1.476-0.639-2.71-1.533-3.697-2.689c-0.99-1.156-1.728-2.559-2.213-4.201C148.837,45.608,148.592,43.795,148.592,41.815z
		 M155.334,41.815c0,1.108,0.1,2.131,0.301,3.07c0.202,0.939,0.504,1.762,0.904,2.466c0.403,0.706,0.931,1.251,1.586,1.635
		c0.652,0.39,1.434,0.581,2.339,0.581c1.71,0,2.984-0.621,3.822-1.863c0.839-1.238,1.259-3.201,1.259-5.886
		c0-2.313-0.387-4.182-1.156-5.608c-0.771-1.425-2.081-2.14-3.923-2.14c-1.611,0-2.87,0.602-3.775,1.812
		C155.787,37.09,155.334,39.067,155.334,41.815z"/>
	<path d="M181.848,29.24v14.288c0,2.045,0.243,3.521,0.729,4.428c0.486,0.905,1.434,1.357,2.843,1.357
		c1.241,0,2.271-0.367,3.093-1.104c0.818-0.739,1.435-1.646,1.838-2.717V29.24h6.539v17.504c0,1.377,0.067,2.728,0.202,4.053
		c0.136,1.326,0.334,2.527,0.604,3.599h-4.932l-1.154-3.726h-0.205c-0.772,1.273-1.842,2.334-3.221,3.172
		c-1.371,0.834-3.001,1.259-4.879,1.259c-1.275,0-2.415-0.168-3.419-0.507c-1.007-0.331-1.845-0.885-2.515-1.657
		c-0.673-0.772-1.182-1.812-1.536-3.12c-0.353-1.309-0.527-2.947-0.527-4.93V29.241L181.848,29.24L181.848,29.24z"/>
	<path d="M216.763,54.395V40.106c0-2.045-0.295-3.521-0.881-4.426c-0.588-0.905-1.586-1.36-2.994-1.36
		c-1.24,0-2.289,0.36-3.145,1.083c-0.854,0.723-1.467,1.619-1.838,2.693v16.299h-6.54V29.24h5.182l0.753,3.319h0.205
		c0.77-1.071,1.793-2.011,3.068-2.819c1.275-0.805,2.919-1.206,4.93-1.206c1.242,0,2.348,0.168,3.32,0.504
		c0.972,0.336,1.795,0.891,2.468,1.662c0.669,0.77,1.174,1.819,1.511,3.144c0.333,1.322,0.499,2.958,0.499,4.904v15.647H216.763
		L216.763,54.395L216.763,54.395z"/>
	<path d="M248.908,45.54c0,1.408,0.014,2.818,0.051,4.229c0.032,1.406,0.183,2.967,0.452,4.677h-4.682l-0.903-3.271h-0.2
		c-0.672,1.174-1.639,2.121-2.893,2.843c-1.258,0.721-2.742,1.083-4.453,1.083c-3.151,0-5.602-1.039-7.344-3.121
		c-1.744-2.078-2.617-5.331-2.617-9.758c0-4.292,0.975-7.63,2.92-10.012c1.941-2.38,4.796-3.571,8.553-3.571
		c1.037,0,1.895,0.06,2.564,0.177c0.67,0.118,1.34,0.311,2.012,0.578V19.179h6.539L248.908,45.54L248.908,45.54z M237.79,49.566
		c1.271,0,2.281-0.312,3.016-0.931c0.738-0.623,1.26-1.518,1.563-2.689V35.279c-0.472-0.371-0.993-0.647-1.563-0.832
		c-0.568-0.183-1.304-0.276-2.212-0.276c-1.845,0-3.227,0.621-4.149,1.863c-0.926,1.24-1.385,3.369-1.385,6.388
		c0,2.146,0.379,3.872,1.131,5.182C234.946,48.913,236.144,49.566,237.79,49.566z"/>
	<path d="M259.122,45.946c0,1.172,0.152,2.028,0.451,2.563c0.304,0.537,0.789,0.806,1.462,0.806c0.399,0,0.795-0.032,1.18-0.099
		c0.386-0.066,0.863-0.221,1.435-0.455l0.705,5.133c-0.539,0.268-1.359,0.536-2.465,0.807c-1.109,0.266-2.248,0.4-3.421,0.4
		c-1.911,0-3.372-0.445-4.377-1.333c-1.005-0.89-1.51-2.356-1.51-4.399V19.179h6.541L259.122,45.946L259.122,45.946z"/>
	<path d="M275.067,43.376l0.904,3.923h0.301l0.653-3.975l3.825-14.085h6.74l-7.647,22.689c-0.636,1.878-1.247,3.598-1.837,5.156
		c-0.59,1.56-1.23,2.908-1.938,4.053c-0.702,1.139-1.483,2.02-2.338,2.638c-0.854,0.622-1.869,0.933-3.043,0.933
		c-1.744,0-3.139-0.285-4.179-0.854l1.205-5.232c0.506,0.201,1.009,0.303,1.513,0.303c0.771,0,1.518-0.326,2.235-0.982
		c0.72-0.65,1.265-1.837,1.636-3.545l-10.515-25.154h7.851L275.067,43.376z"/>
</g>
<g enable-background="new    ">
	<path fill="#A1A0A0" d="M121.192,58.584c0.382-0.082,0.986-0.143,1.601-0.143c0.876,0,1.44,0.15,1.862,0.494
		c0.353,0.262,0.564,0.664,0.564,1.197c0,0.654-0.433,1.229-1.148,1.49v0.021c0.645,0.16,1.399,0.694,1.399,1.7
		c0,0.585-0.231,1.027-0.574,1.359c-0.473,0.434-1.239,0.635-2.346,0.635c-0.604,0-1.067-0.041-1.359-0.08L121.192,58.584
		L121.192,58.584z M122.068,61.363h0.795c0.927,0,1.47-0.481,1.47-1.137c0-0.796-0.604-1.106-1.49-1.106
		c-0.403,0-0.635,0.029-0.775,0.06V61.363z M122.068,64.616c0.17,0.03,0.422,0.041,0.735,0.041c0.906,0,1.742-0.332,1.742-1.32
		c0-0.926-0.795-1.309-1.752-1.309h-0.725V64.616z"/>
	<path fill="#A1A0A0" d="M127.152,63.004c0.021,1.197,0.786,1.69,1.671,1.69c0.634,0,1.017-0.11,1.349-0.251l0.151,0.635
		c-0.312,0.141-0.845,0.301-1.621,0.301c-1.5,0-2.396-0.985-2.396-2.457c0-1.469,0.866-2.627,2.286-2.627
		c1.59,0,2.014,1.399,2.014,2.297c0,0.181-0.02,0.32-0.03,0.412H127.152z M129.75,62.372c0.01-0.564-0.232-1.441-1.229-1.441
		c-0.896,0-1.289,0.826-1.359,1.441H129.75z"/>
	<path fill="#A1A0A0" d="M134.402,65.28l-0.07-0.613h-0.03c-0.272,0.383-0.796,0.726-1.491,0.726c-0.986,0-1.49-0.694-1.49-1.399
		c0-1.178,1.047-1.822,2.93-1.813v-0.101c0-0.402-0.111-1.127-1.107-1.127c-0.453,0-0.926,0.141-1.269,0.361l-0.202-0.584
		c0.403-0.262,0.987-0.434,1.601-0.434c1.49,0,1.853,1.018,1.853,1.994v1.821c0,0.425,0.02,0.837,0.081,1.168L134.402,65.28
		L134.402,65.28z M134.271,62.792c-0.967-0.02-2.064,0.152-2.064,1.1c0,0.572,0.382,0.846,0.835,0.846
		c0.634,0,1.037-0.402,1.178-0.814c0.03-0.092,0.05-0.192,0.05-0.283L134.271,62.792L134.271,62.792z"/>
	<path fill="#A1A0A0" d="M140.635,63.952c0,0.502,0.01,0.945,0.04,1.328h-0.785l-0.05-0.795h-0.02
		c-0.232,0.393-0.745,0.906-1.611,0.906c-0.766,0-1.682-0.424-1.682-2.137v-2.848h0.886v2.697c0,0.926,0.282,1.551,1.087,1.551
		c0.594,0,1.007-0.412,1.168-0.806c0.051-0.132,0.081-0.293,0.081-0.453v-2.989h0.886V63.952L140.635,63.952z"/>
	<path fill="#A1A0A0" d="M143.172,59.006v1.4h1.269v0.674h-1.269v2.629c0,0.604,0.171,0.945,0.665,0.945
		c0.232,0,0.403-0.031,0.514-0.061l0.041,0.664c-0.171,0.07-0.443,0.121-0.786,0.121c-0.413,0-0.745-0.131-0.957-0.373
		c-0.252-0.262-0.342-0.693-0.342-1.27v-2.656h-0.755v-0.676h0.755v-1.168L143.172,59.006z"/>
	<path fill="#A1A0A0" d="M146.425,59.038c0.01,0.303-0.212,0.543-0.564,0.543c-0.313,0-0.534-0.24-0.534-0.543
		c0-0.313,0.231-0.555,0.554-0.555C146.213,58.483,146.425,58.725,146.425,59.038z M145.438,65.28v-4.873h0.886v4.873H145.438z"/>
	<path fill="#A1A0A0" d="M147.884,65.28v-4.197H147.2v-0.676h0.684v-0.23c0-0.686,0.151-1.309,0.564-1.701
		c0.332-0.323,0.775-0.454,1.188-0.454c0.312,0,0.584,0.071,0.755,0.142l-0.121,0.686c-0.13-0.063-0.312-0.11-0.563-0.11
		c-0.755,0-0.946,0.664-0.946,1.409v0.262h1.178v0.676h-1.178v4.197h-0.877V65.28z"/>
	<path fill="#A1A0A0" d="M154.812,63.952c0,0.502,0.01,0.945,0.04,1.328h-0.785l-0.05-0.795h-0.02
		c-0.232,0.393-0.745,0.906-1.611,0.906c-0.766,0-1.682-0.424-1.682-2.137v-2.848h0.886v2.697c0,0.926,0.282,1.551,1.087,1.551
		c0.594,0,1.007-0.412,1.168-0.806c0.051-0.132,0.081-0.293,0.081-0.453v-2.989h0.886V63.952L154.812,63.952z"/>
	<path fill="#A1A0A0" d="M156.282,58.131h0.886v7.147h-0.886V58.131z"/>
	<path fill="#A1A0A0" d="M161.699,58.495v2.84h3.282v-2.84h0.886v6.785h-0.886v-3.182h-3.282v3.182h-0.876v-6.785H161.699z"/>
	<path fill="#A1A0A0" d="M168.677,59.239h-2.064v-0.744h5.024v0.744h-2.074v6.041h-0.886V59.239z"/>
	<path fill="#A1A0A0" d="M178.111,62.299c-0.05-0.946-0.11-2.084-0.1-2.93h-0.031c-0.231,0.795-0.513,1.641-0.855,2.576
		l-1.198,3.293h-0.665l-1.098-3.232c-0.322-0.955-0.594-1.832-0.785-2.637h-0.021c-0.02,0.846-0.07,1.982-0.131,3l-0.181,2.909
		h-0.835l0.473-6.786h1.117l1.158,3.283c0.282,0.834,0.513,1.58,0.685,2.285h0.03c0.171-0.686,0.413-1.43,0.715-2.285l1.208-3.283
		h1.118l0.423,6.786h-0.856L178.111,62.299z"/>
	<path fill="#A1A0A0" d="M180.488,58.495h0.876v6.051h2.9v0.734h-3.776V58.495z"/>
	<path fill="#A1A0A0" d="M187.375,58.584c0.383-0.082,0.985-0.143,1.603-0.143c0.875,0,1.438,0.15,1.86,0.494
		c0.353,0.262,0.563,0.664,0.563,1.197c0,0.654-0.434,1.229-1.146,1.49v0.021c0.645,0.16,1.398,0.694,1.398,1.7
		c0,0.585-0.23,1.027-0.573,1.359c-0.474,0.434-1.238,0.635-2.347,0.635c-0.604,0-1.066-0.041-1.358-0.08V58.584L187.375,58.584z
		 M188.251,61.363h0.795c0.928,0,1.471-0.481,1.471-1.137c0-0.796-0.604-1.106-1.49-1.106c-0.401,0-0.635,0.029-0.774,0.06
		L188.251,61.363L188.251,61.363z M188.251,64.616c0.171,0.03,0.423,0.041,0.734,0.041c0.906,0,1.742-0.332,1.742-1.32
		c0-0.926-0.795-1.309-1.752-1.309h-0.726L188.251,64.616L188.251,64.616z"/>
	<path fill="#A1A0A0" d="M192.804,58.131h0.885v7.147h-0.885V58.131z"/>
	<path fill="#A1A0A0" d="M199.589,62.803c0,1.802-1.249,2.588-2.427,2.588c-1.319,0-2.336-0.967-2.336-2.508
		c0-1.631,1.067-2.588,2.416-2.588C198.644,60.295,199.589,61.313,199.589,62.803z M195.722,62.854c0,1.066,0.615,1.872,1.48,1.872
		c0.846,0,1.479-0.795,1.479-1.894c0-0.826-0.41-1.873-1.459-1.873C196.176,60.959,195.722,61.926,195.722,62.854z"/>
	<path fill="#A1A0A0" d="M204.905,60.407c-0.021,0.352-0.04,0.744-0.04,1.34v2.828c0,1.119-0.222,1.803-0.695,2.227
		c-0.474,0.443-1.157,0.582-1.772,0.582c-0.584,0-1.228-0.139-1.619-0.4l0.221-0.676c0.322,0.203,0.826,0.383,1.43,0.383
		c0.906,0,1.571-0.473,1.571-1.701v-0.543h-0.021c-0.271,0.452-0.795,0.814-1.551,0.814c-1.209,0-2.074-1.026-2.074-2.377
		c0-1.65,1.078-2.588,2.194-2.588c0.847,0,1.31,0.443,1.521,0.849h0.021l0.04-0.735h0.775V60.407z M203.989,62.331
		c0-0.151-0.012-0.283-0.053-0.402c-0.16-0.514-0.593-0.938-1.236-0.938c-0.846,0-1.449,0.715-1.449,1.842
		c0,0.959,0.482,1.752,1.438,1.752c0.545,0,1.039-0.342,1.229-0.904c0.05-0.151,0.069-0.322,0.069-0.473v-0.877H203.989z"/>
	<path fill="#A1A0A0" d="M210.533,60.407c-0.021,0.352-0.04,0.744-0.04,1.34v2.828c0,1.119-0.221,1.803-0.694,2.227
		c-0.474,0.443-1.159,0.582-1.772,0.582c-0.584,0-1.229-0.139-1.62-0.4l0.221-0.676c0.323,0.203,0.826,0.383,1.431,0.383
		c0.905,0,1.57-0.473,1.57-1.701v-0.543h-0.021c-0.271,0.452-0.795,0.814-1.549,0.814c-1.209,0-2.074-1.026-2.074-2.377
		c0-1.65,1.076-2.588,2.193-2.588c0.848,0,1.311,0.443,1.521,0.849h0.019l0.041-0.735h0.775V60.407z M209.617,62.331
		c0-0.151-0.011-0.283-0.052-0.402c-0.16-0.514-0.594-0.938-1.237-0.938c-0.847,0-1.45,0.715-1.45,1.842
		c0,0.959,0.484,1.752,1.439,1.752c0.543,0,1.037-0.342,1.229-0.904c0.05-0.151,0.07-0.322,0.07-0.473V62.331L209.617,62.331z"/>
	<path fill="#A1A0A0" d="M212.457,63.004c0.021,1.197,0.785,1.69,1.672,1.69c0.634,0,1.017-0.11,1.349-0.251l0.15,0.635
		c-0.313,0.141-0.845,0.301-1.62,0.301c-1.501,0-2.396-0.985-2.396-2.457c0-1.469,0.865-2.627,2.285-2.627
		c1.592,0,2.014,1.399,2.014,2.297c0,0.181-0.021,0.32-0.03,0.412H212.457z M215.056,62.372c0.01-0.564-0.231-1.441-1.229-1.441
		c-0.896,0-1.289,0.826-1.359,1.441H215.056z"/>
	<path fill="#A1A0A0" d="M217.009,61.926c0-0.573-0.011-1.066-0.041-1.52h0.776l0.028,0.955h0.041
		c0.222-0.652,0.754-1.066,1.35-1.066c0.102,0,0.171,0.011,0.252,0.031v0.834c-0.091-0.019-0.182-0.029-0.303-0.029
		c-0.625,0-1.066,0.474-1.188,1.138c-0.021,0.122-0.041,0.263-0.041,0.413v2.598h-0.875L217.009,61.926L217.009,61.926z"/>
	<path fill="#A1A0A0" d="M223.341,59.239h-2.063v-0.744h5.025v0.744h-2.076v6.041h-0.887V59.239z"/>
	<path fill="#A1A0A0" d="M226.806,63.004c0.021,1.197,0.785,1.69,1.672,1.69c0.635,0,1.018-0.11,1.349-0.251l0.151,0.635
		c-0.313,0.141-0.846,0.301-1.621,0.301c-1.5,0-2.396-0.985-2.396-2.457c0-1.469,0.865-2.627,2.285-2.627
		c1.592,0,2.014,1.399,2.014,2.297c0,0.181-0.021,0.32-0.03,0.412H226.806z M229.403,62.372c0.01-0.564-0.231-1.441-1.229-1.441
		c-0.896,0-1.289,0.826-1.358,1.441H229.403z"/>
	<path fill="#A1A0A0" d="M231.356,61.725c0-0.503-0.012-0.916-0.041-1.318h0.775l0.04,0.785h0.029
		c0.272-0.463,0.726-0.896,1.53-0.896c0.664,0,1.168,0.404,1.379,0.979h0.021c0.151-0.272,0.344-0.483,0.544-0.636
		c0.291-0.223,0.614-0.344,1.076-0.344c0.646,0,1.603,0.424,1.603,2.115v2.869h-0.865v-2.759c0-0.937-0.344-1.501-1.059-1.501
		c-0.504,0-0.896,0.374-1.047,0.807c-0.039,0.121-0.07,0.281-0.07,0.442v3.011h-0.865v-2.92c0-0.775-0.344-1.34-1.018-1.34
		c-0.554,0-0.955,0.443-1.099,0.889c-0.049,0.131-0.069,0.28-0.069,0.432v2.939h-0.865V61.725L231.356,61.725z"/>
	<path fill="#A1A0A0" d="M239.754,61.999c0-0.625-0.021-1.129-0.04-1.592h0.795l0.041,0.836h0.02
		c0.363-0.595,0.938-0.947,1.731-0.947c1.179,0,2.064,0.998,2.064,2.479c0,1.752-1.066,2.618-2.216,2.618
		c-0.645,0-1.209-0.283-1.5-0.767h-0.021v2.648h-0.876L239.754,61.999L239.754,61.999z M240.63,63.295
		c0,0.131,0.021,0.254,0.04,0.363c0.161,0.614,0.694,1.036,1.329,1.036c0.938,0,1.479-0.765,1.479-1.882
		c0-0.979-0.513-1.813-1.449-1.813c-0.604,0-1.168,0.434-1.338,1.098c-0.03,0.111-0.062,0.242-0.062,0.361L240.63,63.295
		L240.63,63.295z"/>
	<path fill="#A1A0A0" d="M245.483,58.131h0.887v7.147h-0.887V58.131z"/>
	<path fill="#A1A0A0" d="M250.558,65.28l-0.07-0.613h-0.028c-0.272,0.383-0.796,0.726-1.491,0.726c-0.986,0-1.488-0.694-1.488-1.399
		c0-1.178,1.047-1.822,2.93-1.813v-0.101c0-0.402-0.111-1.127-1.107-1.127c-0.453,0-0.927,0.141-1.269,0.361l-0.202-0.584
		c0.402-0.262,0.986-0.434,1.602-0.434c1.49,0,1.853,1.018,1.853,1.994v1.821c0,0.425,0.021,0.837,0.082,1.168L250.558,65.28
		L250.558,65.28z M250.427,62.792c-0.966-0.02-2.063,0.152-2.063,1.1c0,0.572,0.383,0.846,0.835,0.846
		c0.635,0,1.036-0.402,1.179-0.814c0.03-0.092,0.051-0.192,0.051-0.283v-0.848H250.427z"/>
	<path fill="#A1A0A0" d="M253.739,59.006v1.4h1.269v0.674h-1.269v2.629c0,0.604,0.171,0.945,0.664,0.945
		c0.231,0,0.402-0.031,0.514-0.061l0.041,0.664c-0.172,0.07-0.443,0.121-0.785,0.121c-0.413,0-0.744-0.131-0.957-0.373
		c-0.252-0.262-0.342-0.693-0.342-1.27v-2.656h-0.755v-0.676h0.755v-1.168L253.739,59.006z"/>
	<path fill="#A1A0A0" d="M256.438,63.004c0.021,1.197,0.785,1.69,1.67,1.69c0.635,0,1.018-0.11,1.351-0.251l0.151,0.635
		c-0.313,0.141-0.846,0.301-1.623,0.301c-1.5,0-2.396-0.985-2.396-2.457c0-1.469,0.866-2.627,2.285-2.627
		c1.591,0,2.015,1.399,2.015,2.297c0,0.181-0.021,0.32-0.031,0.412H256.438z M259.036,62.372c0.01-0.564-0.23-1.441-1.229-1.441
		c-0.896,0-1.289,0.826-1.359,1.441H259.036z"/>
</g>
</svg>
