<?xml version="1.0" encoding="utf-8"?>
<!-- Generator: Adobe Illustrator 16.0.0, SVG Export Plug-In . SVG Version: 6.00 Build 0)  -->
<!DOCTYPE svg PUBLIC "-//W3C//DTD SVG 1.1//EN" "http://www.w3.org/Graphics/SVG/1.1/DTD/svg11.dtd">
<svg version="1.1" id="Layer_1" xmlns="http://www.w3.org/2000/svg" xmlns:xlink="http://www.w3.org/1999/xlink" x="0px" y="0px"
	 width="144.25px" height="45px" viewBox="14.25 0 144.25 45" enable-background="new 14.25 0 144.25 45" xml:space="preserve">
<g id="icon">
	<path fill="#F68A1F" d="M20.936,32.154h-1.311l0.791-1.088c0.601-0.83,0.976-1.844,1.203-3.159
		c-3.684-1.579-5.711-4.74-5.711-8.912c0-6.277,4.736-10.189,12.334-10.189c7.597,0,12.365,3.912,12.365,10.189
		c0,6.356-4.625,10.151-12.365,10.151c-0.152,0-0.379,0-0.488,0C26.577,30.615,24.509,32.154,20.936,32.154z M28.231,10.236
		c-6.842,0-11.021,3.273-11.021,8.837c0,4.741,2.894,6.882,5.3,7.819l0.528,0.188l-0.073,0.525
		c-0.151,1.278-0.454,2.259-0.793,3.158c2.485-0.301,3.95-1.543,4.783-2.632l0.183-0.3h0.452c0.187,0,0.413,0,0.712,0
		c9.966,0,11.056-6.129,11.056-8.836C39.284,13.508,35.11,10.236,28.231,10.236z"/>
</g>
<g>
	<path d="M66.241,14.335c0,0.561-0.07,1.122-0.21,1.682c-0.141,0.561-0.372,1.073-0.695,1.537c-0.324,0.464-0.744,0.874-1.262,1.229
		c-0.517,0.356-1.143,0.62-1.876,0.792v0.194c0.647,0.108,1.262,0.291,1.844,0.55c0.583,0.259,1.089,0.614,1.521,1.067
		c0.431,0.453,0.771,1.002,1.019,1.649c0.248,0.646,0.372,1.413,0.372,2.297c0,1.164-0.248,2.173-0.744,3.023
		c-0.496,0.852-1.159,1.549-1.989,2.086c-0.831,0.539-1.774,0.938-2.831,1.197c-1.057,0.26-2.146,0.389-3.267,0.389
		c-0.367,0-0.836,0-1.407,0c-0.571,0-1.186-0.018-1.844-0.049c-0.658-0.033-1.326-0.08-2.005-0.146
		c-0.679-0.063-1.299-0.161-1.859-0.291V9.225c0.409-0.065,0.878-0.129,1.407-0.194c0.528-0.064,1.094-0.118,1.698-0.162
		c0.604-0.043,1.224-0.075,1.86-0.097c0.636-0.021,1.267-0.032,1.892-0.032c1.056,0,2.086,0.081,3.089,0.243
		s1.897,0.448,2.685,0.857c0.787,0.41,1.417,0.981,1.892,1.714C66.003,12.287,66.241,13.214,66.241,14.335z M56.699,18.572
		c0.302,0,0.652-0.011,1.051-0.032s0.728-0.053,0.986-0.096c0.819-0.256,1.525-0.64,2.119-1.152c0.593-0.512,0.89-1.184,0.89-2.017
		c0-0.555-0.108-1.013-0.323-1.376c-0.216-0.363-0.501-0.651-0.857-0.864s-0.76-0.362-1.213-0.448s-0.927-0.128-1.423-0.128
		c-0.561,0-1.078,0.011-1.552,0.032c-0.475,0.021-0.841,0.053-1.1,0.096v5.985H56.699z M58.155,28.309
		c0.539,0,1.062-0.063,1.569-0.19c0.506-0.128,0.954-0.326,1.342-0.595c0.388-0.267,0.7-0.603,0.938-1.008
		c0.237-0.406,0.356-0.887,0.356-1.439c0-0.705-0.141-1.262-0.421-1.665c-0.28-0.405-0.646-0.72-1.1-0.945
		c-0.453-0.224-0.959-0.368-1.52-0.433c-0.561-0.063-1.122-0.096-1.682-0.096h-2.361v6.18c0.107,0.043,0.28,0.072,0.517,0.096
		s0.49,0.037,0.76,0.048c0.271,0.013,0.55,0.021,0.841,0.032C57.686,28.303,57.939,28.309,58.155,28.309z"/>
	<path d="M68.44,23.617c0-2.737,0.668-4.846,2.005-6.323c1.337-1.477,3.213-2.216,5.628-2.216c1.294,0,2.415,0.206,3.364,0.615
		c0.949,0.41,1.736,0.986,2.361,1.73c0.625,0.744,1.094,1.645,1.407,2.701c0.312,1.057,0.469,2.221,0.469,3.493
		c0,2.738-0.663,4.848-1.989,6.324c-1.326,1.478-3.197,2.216-5.612,2.216c-1.294,0-2.415-0.205-3.364-0.615
		c-0.949-0.409-1.742-0.985-2.377-1.729c-0.636-0.744-1.111-1.645-1.423-2.701C68.596,26.055,68.44,24.891,68.44,23.617z
		 M72.774,23.617c0,0.712,0.065,1.369,0.194,1.974c0.129,0.604,0.323,1.132,0.582,1.585c0.259,0.453,0.599,0.805,1.019,1.051
		c0.42,0.25,0.922,0.373,1.504,0.373c1.1,0,1.919-0.397,2.458-1.197c0.539-0.797,0.809-2.059,0.809-3.783
		c0-1.487-0.249-2.689-0.744-3.606c-0.496-0.916-1.337-1.375-2.523-1.375c-1.035,0-1.844,0.388-2.426,1.165
		C73.065,20.579,72.774,21.85,72.774,23.617z"/>
	<path d="M89.82,15.532v9.186c0,1.315,0.156,2.265,0.469,2.847s0.922,0.873,1.828,0.873c0.797,0,1.459-0.235,1.988-0.711
		c0.525-0.475,0.922-1.058,1.182-1.746V15.532h4.203v11.256c0,0.884,0.043,1.752,0.131,2.604c0.086,0.852,0.215,1.623,0.387,2.313
		h-3.17l-0.742-2.395h-0.131c-0.496,0.818-1.186,1.5-2.07,2.039c-0.883,0.536-1.93,0.809-3.137,0.809
		c-0.82,0-1.553-0.108-2.199-0.324c-0.646-0.215-1.187-0.57-1.617-1.066c-0.432-0.496-0.76-1.164-0.987-2.006
		c-0.227-0.841-0.339-1.896-0.339-3.17v-10.06H89.82z"/>
	<path d="M112.268,31.704v-9.186c0-1.315-0.188-2.264-0.565-2.846s-1.021-0.874-1.925-0.874c-0.799,0-1.473,0.232-2.021,0.696
		c-0.549,0.464-0.942,1.041-1.181,1.73v10.479h-4.205V15.532h3.331l0.483,2.135h0.131c0.494-0.69,1.152-1.294,1.974-1.812
		s1.876-0.776,3.17-0.776c0.798,0,1.509,0.108,2.136,0.324c0.625,0.216,1.152,0.572,1.586,1.067c0.43,0.496,0.754,1.17,0.971,2.021
		c0.215,0.852,0.322,1.903,0.322,3.154v10.059H112.268z"/>
	<path d="M132.936,26.012c0,0.905,0.01,1.813,0.032,2.717c0.021,0.905,0.118,1.908,0.291,3.008h-3.009l-0.582-2.103h-0.129
		c-0.432,0.755-1.053,1.364-1.859,1.828c-0.81,0.463-1.764,0.695-2.863,0.695c-2.025,0-3.602-0.668-4.723-2.007
		c-1.121-1.336-1.682-3.428-1.682-6.273c0-2.76,0.625-4.906,1.876-6.437c1.25-1.531,3.083-2.296,5.499-2.296
		c0.668,0,1.218,0.038,1.648,0.113c0.432,0.076,0.861,0.2,1.295,0.372V9.063h4.203v16.949H132.936z M125.787,28.6
		c0.818,0,1.466-0.199,1.939-0.599c0.475-0.399,0.81-0.976,1.004-1.729v-6.856c-0.303-0.237-0.639-0.415-1.004-0.534
		c-0.367-0.118-0.84-0.178-1.422-0.178c-1.188,0-2.076,0.399-2.671,1.197c-0.594,0.798-0.89,2.167-0.89,4.107
		c0,1.382,0.242,2.49,0.729,3.332C123.959,28.18,124.729,28.6,125.787,28.6z"/>
	<path d="M139.501,26.271c0,0.754,0.099,1.305,0.291,1.647c0.194,0.347,0.507,0.519,0.938,0.519c0.259,0,0.512-0.021,0.76-0.063
		s0.555-0.142,0.922-0.292l0.453,3.3c-0.346,0.173-0.874,0.345-1.586,0.519c-0.711,0.173-1.444,0.26-2.198,0.26
		c-1.229,0-2.168-0.286-2.813-0.857c-0.646-0.57-0.972-1.515-0.972-2.828V9.063h4.205V26.271z"/>
	<path d="M149.754,24.62l0.582,2.522h0.193l0.421-2.557l2.459-9.056h4.334l-4.917,14.587c-0.409,1.208-0.803,2.313-1.18,3.314
		c-0.379,1.002-0.793,1.869-1.246,2.604c-0.452,0.731-0.955,1.299-1.504,1.696c-0.551,0.398-1.203,0.601-1.957,0.601
		c-1.121,0-2.018-0.185-2.687-0.55l0.774-3.364c0.324,0.13,0.647,0.194,0.973,0.194c0.496,0,0.977-0.211,1.438-0.633
		c0.463-0.42,0.813-1.181,1.053-2.278l-6.762-16.172h5.047L149.754,24.62z"/>
</g>
</svg>
