<?xml version="1.0" encoding="utf-8"?>
<!-- Generator: Adobe Illustrator 16.0.0, SVG Export Plug-In . SVG Version: 6.00 Build 0)  -->
<!DOCTYPE svg PUBLIC "-//W3C//DTD SVG 1.1//EN" "http://www.w3.org/Graphics/SVG/1.1/DTD/svg11.dtd">
<svg version="1.1" id="Layer_1" xmlns="http://www.w3.org/2000/svg" xmlns:xlink="http://www.w3.org/1999/xlink" x="0px" y="0px"
	 width="200px" height="133.667px" viewBox="0 0 200 133.667" enable-background="new 0 0 200 133.667" xml:space="preserve">
<g id="icon">
	<path fill="#F68A1F" d="M81.001,66.149h-3.579l2.16-2.973c1.641-2.268,2.667-5.037,3.287-8.632
		c-10.066-4.315-15.604-12.951-15.604-24.348c0-17.148,12.938-27.835,33.695-27.835c20.751,0,33.776,10.687,33.776,27.835
		c0,17.365-12.631,27.732-33.776,27.732c-0.416,0-1.036,0-1.332,0C96.413,61.942,90.766,66.149,81.001,66.149z M100.932,6.269
		c-18.688,0-30.107,8.942-30.107,24.143c0,12.951,7.906,18.801,14.479,21.362l1.443,0.516l-0.2,1.441
		c-0.41,3.493-1.238,6.165-2.166,8.624c6.787-0.819,10.789-4.214,13.067-7.187l0.496-0.819h1.238c0.509,0,1.126,0,1.944,0
		c27.229,0,30.203-16.743,30.203-24.139C131.126,15.206,119.725,6.269,100.932,6.269z"/>
</g>
<g>
	<path d="M32.499,78.675c0,1.007-0.126,2.014-0.378,3.021c-0.252,1.009-0.668,1.929-1.249,2.763
		c-0.582,0.83-1.336,1.567-2.267,2.207c-0.929,0.64-2.053,1.112-3.37,1.424v0.349c1.162,0.192,2.267,0.521,3.312,0.987
		c1.046,0.465,1.956,1.104,2.731,1.916c0.773,0.813,1.384,1.804,1.83,2.965c0.445,1.162,0.668,2.537,0.668,4.126
		c0,2.091-0.446,3.901-1.337,5.435c-0.891,1.528-2.083,2.778-3.573,3.745c-1.492,0.97-3.187,1.688-5.084,2.151
		c-1.897,0.464-3.854,0.695-5.868,0.695c-0.66,0-1.501,0-2.528,0c-1.027,0-2.13-0.027-3.312-0.086
		c-1.182-0.061-2.381-0.146-3.602-0.265c-1.22-0.114-2.334-0.289-3.34-0.522v-40.09c0.735-0.117,1.577-0.23,2.527-0.35
		c0.949-0.115,1.966-0.212,3.051-0.29c1.084-0.077,2.198-0.135,3.341-0.175c1.142-0.037,2.275-0.059,3.399-0.059
		c1.897,0,3.748,0.146,5.549,0.437c1.802,0.291,3.409,0.806,4.822,1.54c1.414,0.736,2.546,1.763,3.399,3.08
		C32.072,74.996,32.499,76.662,32.499,78.675z M15.358,86.289c0.542,0,1.171-0.021,1.889-0.06c0.716-0.038,1.308-0.095,1.771-0.172
		c1.472-0.459,2.74-1.149,3.806-2.069c1.064-0.92,1.598-2.127,1.598-3.623c0-0.996-0.195-1.818-0.581-2.472
		c-0.388-0.651-0.901-1.168-1.54-1.554c-0.64-0.383-1.366-0.649-2.179-0.805c-0.813-0.152-1.666-0.229-2.557-0.229
		c-1.008,0-1.937,0.021-2.788,0.06c-0.853,0.037-1.511,0.094-1.976,0.172v10.752H15.358z M17.973,103.775
		c0.967,0,1.908-0.113,2.818-0.344c0.909-0.229,1.714-0.586,2.411-1.064c0.697-0.478,1.258-1.082,1.685-1.813
		c0.425-0.729,0.639-1.592,0.639-2.588c0-1.266-0.252-2.264-0.756-2.99c-0.503-0.729-1.162-1.295-1.976-1.698
		c-0.813-0.401-1.724-0.659-2.73-0.774c-1.008-0.115-2.015-0.172-3.021-0.172h-4.241v11.102c0.193,0.076,0.503,0.134,0.929,0.172
		c0.426,0.039,0.88,0.066,1.366,0.086c0.484,0.021,0.987,0.039,1.51,0.061C17.13,103.766,17.585,103.775,17.973,103.775z"/>
	<path d="M36.448,95.35c0-4.918,1.2-8.705,3.603-11.358c2.401-2.652,5.771-3.979,10.11-3.979c2.324,0,4.338,0.367,6.042,1.104
		c1.704,0.735,3.118,1.771,4.242,3.107c1.123,1.337,1.966,2.953,2.528,4.852c0.561,1.898,0.842,3.99,0.842,6.274
		c0,4.92-1.191,8.708-3.574,11.36c-2.382,2.652-5.742,3.979-10.081,3.979c-2.324,0-4.338-0.369-6.042-1.104
		c-1.705-0.735-3.129-1.771-4.271-3.108c-1.143-1.335-1.995-2.952-2.556-4.851C36.729,99.728,36.448,97.637,36.448,95.35z
		 M44.234,95.35c0,1.278,0.117,2.461,0.349,3.545c0.232,1.086,0.581,2.032,1.045,2.847c0.465,0.814,1.075,1.444,1.831,1.889
		c0.755,0.447,1.656,0.668,2.702,0.668c1.975,0,3.447-0.715,4.417-2.147c0.967-1.435,1.452-3.696,1.452-6.799
		c0-2.672-0.446-4.83-1.336-6.479c-0.891-1.646-2.403-2.47-4.532-2.47c-1.859,0-3.312,0.696-4.357,2.093
		C44.757,89.888,44.234,92.175,44.234,95.35z"/>
	<path d="M74.855,80.826v16.502c0,2.362,0.28,4.065,0.842,5.111c0.562,1.047,1.655,1.568,3.283,1.568
		c1.432,0,2.621-0.426,3.572-1.277c0.947-0.852,1.656-1.898,2.123-3.137V80.826h7.55v20.221c0,1.588,0.077,3.146,0.235,4.678
		c0.154,1.529,0.386,2.916,0.695,4.152H87.46l-1.333-4.299h-0.235c-0.891,1.471-2.129,2.692-3.719,3.66
		c-1.586,0.967-3.467,1.453-5.634,1.453c-1.474,0-2.79-0.195-3.951-0.583c-1.162-0.386-2.131-1.024-2.905-1.917
		c-0.775-0.891-1.366-2.091-1.772-3.602c-0.407-1.512-0.61-3.408-0.61-5.694V80.826H74.855z"/>
	<path d="M115.176,109.876v-16.5c0-2.363-0.34-4.068-1.018-5.114s-1.829-1.57-3.456-1.57c-1.435,0-2.644,0.418-3.632,1.251
		c-0.986,0.834-1.695,1.868-2.12,3.107v18.826h-7.554V80.826h5.983l0.872,3.836h0.233c0.89-1.24,2.072-2.326,3.543-3.257
		c1.473-0.93,3.371-1.393,5.695-1.393c1.432,0,2.709,0.192,3.834,0.581c1.123,0.388,2.07,1.025,2.848,1.916
		c0.771,0.893,1.354,2.103,1.744,3.632c0.386,1.53,0.58,3.42,0.58,5.667v18.068H115.176z"/>
	<path d="M152.303,99.651c0,1.626,0.021,3.253,0.061,4.882c0.037,1.625,0.214,3.428,0.523,5.401h-5.406l-1.045-3.776h-0.23
		c-0.773,1.355-1.891,2.45-3.344,3.284c-1.45,0.831-3.166,1.249-5.141,1.249c-3.643,0-6.471-1.199-8.484-3.604
		c-2.014-2.401-3.021-6.16-3.021-11.271c0-4.959,1.122-8.813,3.369-11.563c2.246-2.75,5.539-4.125,9.879-4.125
		c1.199,0,2.188,0.066,2.963,0.203c0.773,0.137,1.55,0.355,2.324,0.668V69.205h7.552V99.651L152.303,99.651z M139.464,104.298
		c1.472,0,2.634-0.358,3.485-1.074c0.851-0.717,1.453-1.752,1.802-3.107v-12.32c-0.544-0.424-1.144-0.744-1.802-0.957
		c-0.659-0.215-1.512-0.318-2.557-0.318c-2.131,0-3.729,0.716-4.795,2.148c-1.065,1.435-1.599,3.894-1.599,7.377
		c0,2.481,0.438,4.476,1.308,5.986C136.18,103.542,137.563,104.298,139.464,104.298z"/>
	<path d="M164.1,100.117c0,1.355,0.176,2.344,0.521,2.963c0.35,0.619,0.911,0.93,1.688,0.93c0.465,0,0.918-0.037,1.363-0.114
		s0.997-0.253,1.656-0.522l0.813,5.928c-0.619,0.311-1.567,0.619-2.847,0.93c-1.278,0.309-2.597,0.465-3.95,0.465
		c-2.209,0-3.895-0.516-5.057-1.541c-1.161-1.025-1.743-2.721-1.743-5.083V69.205h7.554v30.912H164.1z"/>
	<path d="M182.518,97.151l1.045,4.533h0.351l0.755-4.591l4.417-16.268h7.785l-8.833,26.202c-0.732,2.171-1.439,4.153-2.119,5.955
		c-0.679,1.804-1.424,3.358-2.236,4.679c-0.813,1.315-1.716,2.334-2.701,3.051c-0.988,0.716-2.16,1.074-3.518,1.074
		c-2.014,0-3.621-0.328-4.82-0.986l1.395-6.043c0.58,0.232,1.162,0.349,1.742,0.349c0.893,0,1.754-0.377,2.586-1.133
		c0.832-0.757,1.463-2.121,1.889-4.097l-12.143-29.051h9.063L182.518,97.151z"/>
</g>
<g>
	<path fill="#A1A0A0" d="M5.996,114.6c0.447-0.095,1.152-0.166,1.87-0.166c1.023,0,1.682,0.177,2.176,0.577
		c0.412,0.306,0.659,0.776,0.659,1.4c0,0.764-0.505,1.434-1.341,1.74v0.023c0.753,0.188,1.635,0.812,1.635,1.987
		c0,0.683-0.27,1.2-0.67,1.588c-0.553,0.507-1.447,0.741-2.74,0.741c-0.706,0-1.247-0.047-1.588-0.094V114.6z M7.019,117.845h0.929
		c1.083,0,1.717-0.564,1.717-1.329c0-0.929-0.706-1.293-1.741-1.293c-0.471,0-0.741,0.035-0.906,0.07V117.845z M7.019,121.645
		c0.2,0.036,0.495,0.047,0.859,0.047c1.059,0,2.035-0.388,2.035-1.541c0-1.081-0.929-1.528-2.047-1.528H7.019V121.645z"/>
	<path fill="#A1A0A0" d="M12.959,119.762c0.023,1.4,0.917,1.977,1.953,1.977c0.741,0,1.188-0.13,1.576-0.294l0.177,0.74
		c-0.365,0.166-0.988,0.354-1.894,0.354c-1.752,0-2.799-1.152-2.799-2.87c0-1.717,1.012-3.069,2.67-3.069
		c1.858,0,2.353,1.635,2.353,2.682c0,0.212-0.023,0.376-0.035,0.481H12.959z M15.993,119.022c0.012-0.658-0.271-1.682-1.435-1.682
		c-1.047,0-1.505,0.965-1.588,1.682H15.993z"/>
	<path fill="#A1A0A0" d="M21.428,122.421l-0.083-0.718h-0.035c-0.318,0.447-0.929,0.847-1.741,0.847
		c-1.153,0-1.741-0.812-1.741-1.635c0-1.376,1.224-2.129,3.423-2.117v-0.117c0-0.471-0.129-1.317-1.293-1.317
		c-0.529,0-1.082,0.164-1.482,0.424l-0.235-0.683c0.47-0.306,1.152-0.506,1.87-0.506c1.741,0,2.165,1.188,2.165,2.329v2.129
		c0,0.494,0.023,0.976,0.094,1.364H21.428z M21.274,119.516c-1.129-0.023-2.411,0.177-2.411,1.282c0,0.67,0.447,0.987,0.976,0.987
		c0.741,0,1.211-0.47,1.376-0.952c0.035-0.106,0.059-0.224,0.059-0.33V119.516z"/>
	<path fill="#A1A0A0" d="M28.709,120.869c0,0.588,0.012,1.105,0.047,1.553h-0.918l-0.059-0.93h-0.023
		c-0.271,0.459-0.871,1.059-1.882,1.059c-0.894,0-1.964-0.493-1.964-2.493v-3.328h1.035v3.151c0,1.083,0.329,1.812,1.271,1.812
		c0.693,0,1.176-0.482,1.364-0.94c0.059-0.153,0.094-0.342,0.094-0.529v-3.493h1.035V120.869z"/>
	<path fill="#A1A0A0" d="M31.673,115.093v1.636h1.482v0.787h-1.482v3.07c0,0.706,0.2,1.105,0.776,1.105
		c0.271,0,0.471-0.036,0.6-0.071l0.047,0.777c-0.2,0.082-0.518,0.141-0.918,0.141c-0.482,0-0.87-0.152-1.117-0.435
		c-0.294-0.307-0.4-0.812-0.4-1.482v-3.105h-0.882v-0.787h0.882v-1.365L31.673,115.093z"/>
	<path fill="#A1A0A0" d="M35.473,115.129c0.011,0.353-0.248,0.634-0.659,0.634c-0.364,0-0.623-0.281-0.623-0.634
		c0-0.365,0.27-0.648,0.646-0.648C35.226,114.481,35.473,114.764,35.473,115.129z M34.32,122.421v-5.692h1.035v5.692H34.32z"/>
	<path fill="#A1A0A0" d="M37.178,122.421v-4.905h-0.799v-0.787h0.799v-0.271c0-0.8,0.177-1.529,0.659-1.988
		c0.388-0.377,0.905-0.529,1.387-0.529c0.365,0,0.683,0.083,0.882,0.165l-0.141,0.8c-0.153-0.071-0.365-0.129-0.659-0.129
		c-0.882,0-1.105,0.775-1.105,1.646v0.307h1.376v0.787h-1.376v4.905H37.178z"/>
	<path fill="#A1A0A0" d="M45.271,120.869c0,0.588,0.012,1.105,0.047,1.553H44.4l-0.059-0.93h-0.023
		c-0.271,0.459-0.87,1.059-1.882,1.059c-0.894,0-1.964-0.493-1.964-2.493v-3.328h1.035v3.151c0,1.083,0.33,1.812,1.271,1.812
		c0.693,0,1.176-0.482,1.364-0.94c0.059-0.153,0.094-0.342,0.094-0.529v-3.493h1.035V120.869z"/>
	<path fill="#A1A0A0" d="M46.988,114.071h1.035v8.351h-1.035V114.071z"/>
	<path fill="#A1A0A0" d="M53.316,114.494v3.316h3.835v-3.316h1.034v7.928h-1.034v-3.717h-3.835v3.717h-1.023v-7.928H53.316z"/>
	<path fill="#A1A0A0" d="M61.468,115.364h-2.411v-0.87h5.869v0.87h-2.423v7.058h-1.035V115.364z"/>
	<path fill="#A1A0A0" d="M72.489,118.94c-0.058-1.105-0.129-2.435-0.117-3.423h-0.036c-0.271,0.93-0.6,1.917-1,3.011l-1.399,3.846
		h-0.776l-1.282-3.775c-0.376-1.117-0.694-2.14-0.917-3.081h-0.023c-0.024,0.988-0.083,2.317-0.153,3.505l-0.212,3.399h-0.976
		l0.553-7.928h1.305l1.353,3.834c0.329,0.977,0.6,1.848,0.8,2.67h0.036c0.2-0.8,0.482-1.67,0.835-2.67l1.411-3.834h1.306
		l0.494,7.928h-1L72.489,118.94z"/>
	<path fill="#A1A0A0" d="M75.266,114.494h1.023v7.068h3.387v0.859h-4.411V114.494z"/>
	<path fill="#A1A0A0" d="M83.311,114.6c0.448-0.095,1.153-0.166,1.87-0.166c1.023,0,1.682,0.177,2.176,0.577
		c0.412,0.306,0.659,0.776,0.659,1.4c0,0.764-0.506,1.434-1.341,1.74v0.023c0.753,0.188,1.635,0.812,1.635,1.987
		c0,0.683-0.271,1.2-0.67,1.588c-0.553,0.507-1.446,0.741-2.74,0.741c-0.706,0-1.247-0.047-1.588-0.094V114.6z M84.334,117.845
		h0.929c1.082,0,1.717-0.564,1.717-1.329c0-0.929-0.706-1.293-1.741-1.293c-0.47,0-0.74,0.035-0.905,0.07V117.845z M84.334,121.645
		c0.2,0.036,0.494,0.047,0.858,0.047c1.059,0,2.035-0.388,2.035-1.541c0-1.081-0.929-1.528-2.047-1.528h-0.846V121.645z"/>
	<path fill="#A1A0A0" d="M89.651,114.071h1.035v8.351h-1.035V114.071z"/>
	<path fill="#A1A0A0" d="M97.578,119.528c0,2.105-1.457,3.022-2.834,3.022c-1.541,0-2.729-1.129-2.729-2.929
		c0-1.906,1.247-3.022,2.823-3.022C96.473,116.599,97.578,117.788,97.578,119.528z M93.062,119.586c0,1.247,0.718,2.188,1.729,2.188
		c0.988,0,1.729-0.93,1.729-2.212c0-0.965-0.482-2.188-1.706-2.188S93.062,118.504,93.062,119.586z"/>
	<path fill="#A1A0A0" d="M103.789,116.729c-0.024,0.41-0.047,0.87-0.047,1.563v3.306c0,1.305-0.26,2.104-0.812,2.6
		c-0.553,0.517-1.354,0.682-2.07,0.682c-0.683,0-1.436-0.165-1.894-0.471l0.258-0.787c0.376,0.234,0.965,0.446,1.67,0.446
		c1.058,0,1.835-0.554,1.835-1.987v-0.636h-0.024c-0.317,0.529-0.929,0.953-1.811,0.953c-1.412,0-2.423-1.199-2.423-2.776
		c0-1.929,1.259-3.022,2.565-3.022c0.988,0,1.528,0.518,1.775,0.988h0.023l0.047-0.858H103.789z M102.719,118.975
		c0-0.177-0.013-0.33-0.06-0.471c-0.188-0.6-0.693-1.094-1.445-1.094c-0.989,0-1.695,0.835-1.695,2.152
		c0,1.117,0.565,2.046,1.681,2.046c0.637,0,1.213-0.399,1.437-1.058c0.059-0.177,0.082-0.376,0.082-0.553V118.975z"/>
	<path fill="#A1A0A0" d="M110.364,116.729c-0.023,0.41-0.047,0.87-0.047,1.563v3.306c0,1.305-0.259,2.104-0.811,2.6
		c-0.554,0.517-1.354,0.682-2.071,0.682c-0.682,0-1.435-0.165-1.894-0.471l0.259-0.787c0.377,0.234,0.965,0.446,1.671,0.446
		c1.058,0,1.835-0.554,1.835-1.987v-0.636h-0.024c-0.317,0.529-0.929,0.953-1.811,0.953c-1.412,0-2.424-1.199-2.424-2.776
		c0-1.929,1.26-3.022,2.564-3.022c0.988,0,1.529,0.518,1.775,0.988h0.024l0.047-0.858H110.364z M109.294,118.975
		c0-0.177-0.012-0.33-0.059-0.471c-0.188-0.6-0.693-1.094-1.446-1.094c-0.988,0-1.694,0.835-1.694,2.152
		c0,1.117,0.565,2.046,1.683,2.046c0.635,0,1.211-0.399,1.435-1.058c0.059-0.177,0.082-0.376,0.082-0.553V118.975z"/>
	<path fill="#A1A0A0" d="M112.612,119.762c0.022,1.4,0.917,1.977,1.952,1.977c0.741,0,1.188-0.13,1.576-0.294l0.177,0.74
		c-0.365,0.166-0.988,0.354-1.894,0.354c-1.754,0-2.8-1.152-2.8-2.87c0-1.717,1.011-3.069,2.67-3.069
		c1.858,0,2.353,1.635,2.353,2.682c0,0.212-0.024,0.376-0.036,0.481H112.612z M115.646,119.022c0.012-0.658-0.271-1.682-1.435-1.682
		c-1.047,0-1.506,0.965-1.589,1.682H115.646z"/>
	<path fill="#A1A0A0" d="M117.929,118.504c0-0.67-0.012-1.246-0.047-1.775h0.905l0.035,1.116h0.047
		c0.259-0.764,0.882-1.246,1.576-1.246c0.117,0,0.199,0.012,0.294,0.036v0.976c-0.105-0.023-0.212-0.036-0.354-0.036
		c-0.729,0-1.247,0.554-1.388,1.329c-0.022,0.142-0.047,0.307-0.047,0.482v3.035h-1.022V118.504z"/>
	<path fill="#A1A0A0" d="M125.326,115.364h-2.41v-0.87h5.869v0.87h-2.424v7.058h-1.035V115.364z"/>
	<path fill="#A1A0A0" d="M129.373,119.762c0.024,1.4,0.917,1.977,1.952,1.977c0.741,0,1.188-0.13,1.576-0.294l0.177,0.74
		c-0.364,0.166-0.987,0.354-1.894,0.354c-1.753,0-2.8-1.152-2.8-2.87c0-1.717,1.013-3.069,2.67-3.069
		c1.859,0,2.353,1.635,2.353,2.682c0,0.212-0.023,0.376-0.035,0.481H129.373z M132.408,119.022c0.011-0.658-0.271-1.682-1.436-1.682
		c-1.046,0-1.506,0.965-1.588,1.682H132.408z"/>
	<path fill="#A1A0A0" d="M134.69,118.269c0-0.588-0.012-1.069-0.047-1.54h0.906l0.047,0.917h0.035
		c0.317-0.541,0.847-1.047,1.787-1.047c0.775,0,1.365,0.471,1.611,1.142h0.024c0.176-0.318,0.399-0.565,0.635-0.742
		c0.341-0.259,0.717-0.399,1.258-0.399c0.753,0,1.871,0.493,1.871,2.471v3.352h-1.013v-3.223c0-1.094-0.399-1.753-1.234-1.753
		c-0.588,0-1.048,0.436-1.224,0.94c-0.047,0.142-0.082,0.33-0.082,0.518v3.518h-1.011v-3.411c0-0.905-0.4-1.564-1.188-1.564
		c-0.647,0-1.117,0.519-1.282,1.035c-0.059,0.153-0.083,0.329-0.083,0.506v3.435h-1.011V118.269z"/>
	<path fill="#A1A0A0" d="M144.501,118.587c0-0.73-0.024-1.318-0.047-1.858h0.929l0.047,0.976h0.023
		c0.424-0.694,1.094-1.105,2.022-1.105c1.376,0,2.411,1.164,2.411,2.894c0,2.047-1.246,3.058-2.587,3.058
		c-0.753,0-1.412-0.329-1.753-0.895h-0.023v3.094h-1.022V118.587z M145.523,120.104c0,0.153,0.023,0.295,0.047,0.424
		c0.188,0.718,0.812,1.211,1.553,1.211c1.095,0,1.729-0.894,1.729-2.199c0-1.141-0.6-2.117-1.692-2.117
		c-0.706,0-1.365,0.506-1.565,1.282c-0.034,0.129-0.07,0.282-0.07,0.423V120.104z"/>
	<path fill="#A1A0A0" d="M151.193,114.071h1.035v8.351h-1.035V114.071z"/>
	<path fill="#A1A0A0" d="M157.121,122.421l-0.083-0.718h-0.034c-0.317,0.447-0.93,0.847-1.741,0.847
		c-1.152,0-1.741-0.812-1.741-1.635c0-1.376,1.224-2.129,3.423-2.117v-0.117c0-0.471-0.129-1.317-1.294-1.317
		c-0.528,0-1.082,0.164-1.481,0.424l-0.235-0.683c0.47-0.306,1.152-0.506,1.87-0.506c1.74,0,2.164,1.188,2.164,2.329v2.129
		c0,0.494,0.023,0.976,0.095,1.364H157.121z M156.968,119.516c-1.129-0.023-2.411,0.177-2.411,1.282c0,0.67,0.448,0.987,0.977,0.987
		c0.741,0,1.211-0.47,1.377-0.952c0.034-0.106,0.058-0.224,0.058-0.33V119.516z"/>
	<path fill="#A1A0A0" d="M160.839,115.093v1.636h1.481v0.787h-1.481v3.07c0,0.706,0.199,1.105,0.775,1.105
		c0.271,0,0.471-0.036,0.601-0.071l0.047,0.777c-0.2,0.082-0.518,0.141-0.917,0.141c-0.482,0-0.871-0.152-1.118-0.435
		c-0.294-0.307-0.399-0.812-0.399-1.482v-3.105h-0.882v-0.787h0.882v-1.365L160.839,115.093z"/>
	<path fill="#A1A0A0" d="M163.991,119.762c0.023,1.4,0.917,1.977,1.952,1.977c0.741,0,1.188-0.13,1.576-0.294l0.176,0.74
		c-0.363,0.166-0.987,0.354-1.893,0.354c-1.753,0-2.8-1.152-2.8-2.87c0-1.717,1.012-3.069,2.671-3.069
		c1.858,0,2.352,1.635,2.352,2.682c0,0.212-0.023,0.376-0.036,0.481H163.991z M167.025,119.022c0.012-0.658-0.271-1.682-1.435-1.682
		c-1.047,0-1.506,0.965-1.588,1.682H167.025z"/>
</g>
</svg>
